solid OpenSCAD_Model
  facet normal 1 -0 0
    outer loop
      vertex 5 0 2.5
      vertex 5 2.5 0
      vertex 5 2.5 2.5
    endloop
  endfacet
  facet normal 1 0 0
    outer loop
      vertex 5 2.5 0
      vertex 5 0 2.5
      vertex 5 0 0
    endloop
  endfacet
  facet normal 0 0 1
    outer loop
      vertex 5 2.5 2.5
      vertex 4.25 1.75 2.5
      vertex 5 0 2.5
    endloop
  endfacet
  facet normal 0 0 1
    outer loop
      vertex 5 2.5 2.5
      vertex 3.25 1.75 2.5
      vertex 4.25 1.75 2.5
    endloop
  endfacet
  facet normal 0 0 1
    outer loop
      vertex 3.25 1.75 2.5
      vertex 1.75 1.75 2.5
      vertex 3.25 0.75 2.5
    endloop
  endfacet
  facet normal 0 0 1
    outer loop
      vertex 5 2.5 2.5
      vertex 1.75 1.75 2.5
      vertex 3.25 1.75 2.5
    endloop
  endfacet
  facet normal -0 0 1
    outer loop
      vertex 0 2.5 2.5
      vertex 1.75 1.75 2.5
      vertex 5 2.5 2.5
    endloop
  endfacet
  facet normal 0 0 1
    outer loop
      vertex 0.75 1.75 2.5
      vertex 0 2.5 2.5
      vertex 0.75 0.75 2.5
    endloop
  endfacet
  facet normal 0 0 1
    outer loop
      vertex 1.75 1.75 2.5
      vertex 0 2.5 2.5
      vertex 0.75 1.75 2.5
    endloop
  endfacet
  facet normal -0 0 1
    outer loop
      vertex 4.25 0.75 2.5
      vertex 5 0 2.5
      vertex 4.25 1.75 2.5
    endloop
  endfacet
  facet normal -0 0 1
    outer loop
      vertex 3.25 0.75 2.5
      vertex 5 0 2.5
      vertex 4.25 0.75 2.5
    endloop
  endfacet
  facet normal 0 0 1
    outer loop
      vertex 1.75 0.75 2.5
      vertex 3.25 0.75 2.5
      vertex 1.75 1.75 2.5
    endloop
  endfacet
  facet normal -0 0 1
    outer loop
      vertex 1.75 0.75 2.5
      vertex 5 0 2.5
      vertex 3.25 0.75 2.5
    endloop
  endfacet
  facet normal 0 0 1
    outer loop
      vertex 0 0 2.5
      vertex 1.75 0.75 2.5
      vertex 0.75 0.75 2.5
    endloop
  endfacet
  facet normal 0 0 1
    outer loop
      vertex 1.75 0.75 2.5
      vertex 0 0 2.5
      vertex 5 0 2.5
    endloop
  endfacet
  facet normal 0 0 1
    outer loop
      vertex 0 0 2.5
      vertex 0.75 0.75 2.5
      vertex 0 2.5 2.5
    endloop
  endfacet
  facet normal 0 0 -1
    outer loop
      vertex 0 0 0
      vertex 5 2.5 0
      vertex 5 0 0
    endloop
  endfacet
  facet normal -0 0 -1
    outer loop
      vertex 5 2.5 0
      vertex 0 0 0
      vertex 0 2.5 0
    endloop
  endfacet
  facet normal -1 0 0
    outer loop
      vertex 0 0 0
      vertex 0 2.5 2.5
      vertex 0 2.5 0
    endloop
  endfacet
  facet normal -1 -0 0
    outer loop
      vertex 0 2.5 2.5
      vertex 0 0 0
      vertex 0 0 2.5
    endloop
  endfacet
  facet normal 0 1 -0
    outer loop
      vertex 5 2.5 0
      vertex 0 2.5 2.5
      vertex 5 2.5 2.5
    endloop
  endfacet
  facet normal 0 1 0
    outer loop
      vertex 0 2.5 2.5
      vertex 5 2.5 0
      vertex 0 2.5 0
    endloop
  endfacet
  facet normal 0 -1 0
    outer loop
      vertex 0 0 0
      vertex 5 0 2.5
      vertex 0 0 2.5
    endloop
  endfacet
  facet normal 0 -1 -0
    outer loop
      vertex 5 0 2.5
      vertex 0 0 0
      vertex 5 0 0
    endloop
  endfacet
  facet normal 1 -0 0
    outer loop
      vertex 1.75 0.75 4.5
      vertex 1.75 1.75 2.5
      vertex 1.75 1.75 4.5
    endloop
  endfacet
  facet normal 1 0 0
    outer loop
      vertex 1.75 1.75 2.5
      vertex 1.75 0.75 4.5
      vertex 1.75 0.75 2.5
    endloop
  endfacet
  facet normal -0 0 1
    outer loop
      vertex 0.75 1.75 4.5
      vertex 1.75 0.75 4.5
      vertex 1.75 1.75 4.5
    endloop
  endfacet
  facet normal 0 0 1
    outer loop
      vertex 1.75 0.75 4.5
      vertex 0.75 1.75 4.5
      vertex 0.75 0.75 4.5
    endloop
  endfacet
  facet normal -1 0 0
    outer loop
      vertex 0.75 0.75 2.5
      vertex 0.75 1.75 4.5
      vertex 0.75 1.75 2.5
    endloop
  endfacet
  facet normal -1 -0 0
    outer loop
      vertex 0.75 1.75 4.5
      vertex 0.75 0.75 2.5
      vertex 0.75 0.75 4.5
    endloop
  endfacet
  facet normal 0 1 -0
    outer loop
      vertex 1.75 1.75 2.5
      vertex 0.75 1.75 4.5
      vertex 1.75 1.75 4.5
    endloop
  endfacet
  facet normal 0 1 0
    outer loop
      vertex 0.75 1.75 4.5
      vertex 1.75 1.75 2.5
      vertex 0.75 1.75 2.5
    endloop
  endfacet
  facet normal 0 -1 0
    outer loop
      vertex 0.75 0.75 2.5
      vertex 1.75 0.75 4.5
      vertex 0.75 0.75 4.5
    endloop
  endfacet
  facet normal 0 -1 -0
    outer loop
      vertex 1.75 0.75 4.5
      vertex 0.75 0.75 2.5
      vertex 1.75 0.75 2.5
    endloop
  endfacet
  facet normal 1 -0 0
    outer loop
      vertex 4.25 0.75 4.5
      vertex 4.25 1.75 2.5
      vertex 4.25 1.75 4.5
    endloop
  endfacet
  facet normal 1 0 0
    outer loop
      vertex 4.25 1.75 2.5
      vertex 4.25 0.75 4.5
      vertex 4.25 0.75 2.5
    endloop
  endfacet
  facet normal -0 0 1
    outer loop
      vertex 3.25 1.75 4.5
      vertex 4.25 0.75 4.5
      vertex 4.25 1.75 4.5
    endloop
  endfacet
  facet normal 0 0 1
    outer loop
      vertex 4.25 0.75 4.5
      vertex 3.25 1.75 4.5
      vertex 3.25 0.75 4.5
    endloop
  endfacet
  facet normal -1 0 0
    outer loop
      vertex 3.25 0.75 2.5
      vertex 3.25 1.75 4.5
      vertex 3.25 1.75 2.5
    endloop
  endfacet
  facet normal -1 -0 0
    outer loop
      vertex 3.25 1.75 4.5
      vertex 3.25 0.75 2.5
      vertex 3.25 0.75 4.5
    endloop
  endfacet
  facet normal 0 1 -0
    outer loop
      vertex 4.25 1.75 2.5
      vertex 3.25 1.75 4.5
      vertex 4.25 1.75 4.5
    endloop
  endfacet
  facet normal 0 1 0
    outer loop
      vertex 3.25 1.75 4.5
      vertex 4.25 1.75 2.5
      vertex 3.25 1.75 2.5
    endloop
  endfacet
  facet normal 0 -1 0
    outer loop
      vertex 3.25 0.75 2.5
      vertex 4.25 0.75 4.5
      vertex 3.25 0.75 4.5
    endloop
  endfacet
  facet normal 0 -1 -0
    outer loop
      vertex 4.25 0.75 4.5
      vertex 3.25 0.75 2.5
      vertex 4.25 0.75 2.5
    endloop
  endfacet
endsolid OpenSCAD_Model
