solid OpenSCAD_Model
  facet normal 1 -0 0
    outer loop
      vertex 100 0 77.5
      vertex 100 2.5 2.5
      vertex 100 2.5 77.5
    endloop
  endfacet
  facet normal 1 0 0
    outer loop
      vertex 100 2.5 2.5
      vertex 100 0 77.5
      vertex 100 0 2.5
    endloop
  endfacet
  facet normal -0 0 1
    outer loop
      vertex 2.5 2.5 80
      vertex 97.5 0 80
      vertex 97.5 2.5 80
    endloop
  endfacet
  facet normal 0 0 1
    outer loop
      vertex 97.5 0 80
      vertex 2.5 2.5 80
      vertex 2.5 0 80
    endloop
  endfacet
  facet normal 0 0 -1
    outer loop
      vertex 2.5 0 0
      vertex 97.5 2.5 0
      vertex 97.5 0 0
    endloop
  endfacet
  facet normal -0 0 -1
    outer loop
      vertex 97.5 2.5 0
      vertex 2.5 0 0
      vertex 2.5 2.5 0
    endloop
  endfacet
  facet normal -1 0 0
    outer loop
      vertex 0 0 2.5
      vertex 0 2.5 77.5
      vertex 0 2.5 2.5
    endloop
  endfacet
  facet normal -1 -0 0
    outer loop
      vertex 0 2.5 77.5
      vertex 0 0 2.5
      vertex 0 0 77.5
    endloop
  endfacet
  facet normal 0 1 -0
    outer loop
      vertex 97.5 2.5 0
      vertex 2.5 2.5 2.5
      vertex 97.5 2.5 2.5
    endloop
  endfacet
  facet normal 0 1 0
    outer loop
      vertex 2.5 2.5 2.5
      vertex 97.5 2.5 0
      vertex 2.5 2.5 0
    endloop
  endfacet
  facet normal 0 1 0
    outer loop
      vertex 97.5 2.5 2.5
      vertex 97.5 2.5 77.5
      vertex 100 2.5 77.5
    endloop
  endfacet
  facet normal 0 1 0
    outer loop
      vertex 97.5 2.5 77.5
      vertex 97.5 2.5 2.5
      vertex 2.5 2.5 77.5
    endloop
  endfacet
  facet normal 0 1 0
    outer loop
      vertex 97.5 2.5 2.5
      vertex 100 2.5 77.5
      vertex 100 2.5 2.5
    endloop
  endfacet
  facet normal 0 1 0
    outer loop
      vertex 2.5 2.5 2.5
      vertex 2.5 2.5 77.5
      vertex 97.5 2.5 2.5
    endloop
  endfacet
  facet normal 0 1 0
    outer loop
      vertex 2.5 2.5 77.5
      vertex 2.5 2.5 2.5
      vertex 0 2.5 77.5
    endloop
  endfacet
  facet normal 0 1 0
    outer loop
      vertex 0 2.5 77.5
      vertex 2.5 2.5 2.5
      vertex 0 2.5 2.5
    endloop
  endfacet
  facet normal 0 1 -0
    outer loop
      vertex 97.5 2.5 77.5
      vertex 2.5 2.5 80
      vertex 97.5 2.5 80
    endloop
  endfacet
  facet normal 0 1 0
    outer loop
      vertex 2.5 2.5 80
      vertex 97.5 2.5 77.5
      vertex 2.5 2.5 77.5
    endloop
  endfacet
  facet normal 0 -1 0
    outer loop
      vertex 2.5 0 0
      vertex 97.5 0 2.5
      vertex 2.5 0 2.5
    endloop
  endfacet
  facet normal 0 -1 -0
    outer loop
      vertex 97.5 0 2.5
      vertex 2.5 0 0
      vertex 97.5 0 0
    endloop
  endfacet
  facet normal 0 -1 0
    outer loop
      vertex 2.5 0 2.5
      vertex 2.5 0 77.5
      vertex 0 0 77.5
    endloop
  endfacet
  facet normal 0 -1 0
    outer loop
      vertex 2.5 0 77.5
      vertex 2.5 0 2.5
      vertex 97.5 0 77.5
    endloop
  endfacet
  facet normal 0 -1 0
    outer loop
      vertex 2.5 0 2.5
      vertex 0 0 77.5
      vertex 0 0 2.5
    endloop
  endfacet
  facet normal 0 -1 0
    outer loop
      vertex 97.5 0 2.5
      vertex 97.5 0 77.5
      vertex 2.5 0 2.5
    endloop
  endfacet
  facet normal 0 -1 0
    outer loop
      vertex 97.5 0 77.5
      vertex 97.5 0 2.5
      vertex 100 0 77.5
    endloop
  endfacet
  facet normal 0 -1 -0
    outer loop
      vertex 100 0 77.5
      vertex 97.5 0 2.5
      vertex 100 0 2.5
    endloop
  endfacet
  facet normal 0 -1 0
    outer loop
      vertex 2.5 0 77.5
      vertex 97.5 0 80
      vertex 2.5 0 80
    endloop
  endfacet
  facet normal 0 -1 -0
    outer loop
      vertex 97.5 0 80
      vertex 2.5 0 77.5
      vertex 97.5 0 77.5
    endloop
  endfacet
  facet normal -1 0 0
    outer loop
      vertex 2.5 0 0
      vertex 2.5 2.5 2.5
      vertex 2.5 2.5 0
    endloop
  endfacet
  facet normal -1 -0 0
    outer loop
      vertex 2.5 2.5 2.5
      vertex 2.5 0 0
      vertex 2.5 0 2.5
    endloop
  endfacet
  facet normal 0 0 -1
    outer loop
      vertex 2.5 0 2.5
      vertex 1.8 0.7 2.5
      vertex 2.5 2.5 2.5
    endloop
  endfacet
  facet normal 0 0 -1
    outer loop
      vertex 2.5 0 2.5
      vertex 0.7 0.7 2.5
      vertex 1.8 0.7 2.5
    endloop
  endfacet
  facet normal -0 0 -1
    outer loop
      vertex 0.7 0.7 2.5
      vertex 0 0 2.5
      vertex 0.7 1.8 2.5
    endloop
  endfacet
  facet normal 0 0 -1
    outer loop
      vertex 0 0 2.5
      vertex 0.7 0.7 2.5
      vertex 2.5 0 2.5
    endloop
  endfacet
  facet normal 0 0 -1
    outer loop
      vertex 1.8 1.8 2.5
      vertex 2.5 2.5 2.5
      vertex 1.8 0.7 2.5
    endloop
  endfacet
  facet normal 0 0 -1
    outer loop
      vertex 0.7 1.8 2.5
      vertex 2.5 2.5 2.5
      vertex 1.8 1.8 2.5
    endloop
  endfacet
  facet normal 0 0 -1
    outer loop
      vertex 0.7 1.8 2.5
      vertex 0 2.5 2.5
      vertex 2.5 2.5 2.5
    endloop
  endfacet
  facet normal 0 0 -1
    outer loop
      vertex 0 2.5 2.5
      vertex 0.7 1.8 2.5
      vertex 0 0 2.5
    endloop
  endfacet
  facet normal -1 0 0
    outer loop
      vertex 1.8 0.7 2.5
      vertex 1.8 1.8 4.5
      vertex 1.8 1.8 2.5
    endloop
  endfacet
  facet normal -1 -0 0
    outer loop
      vertex 1.8 1.8 4.5
      vertex 1.8 0.7 2.5
      vertex 1.8 0.7 4.5
    endloop
  endfacet
  facet normal 0 0 -1
    outer loop
      vertex 0.7 0.7 4.5
      vertex 1.8 1.8 4.5
      vertex 1.8 0.7 4.5
    endloop
  endfacet
  facet normal -0 0 -1
    outer loop
      vertex 1.8 1.8 4.5
      vertex 0.7 0.7 4.5
      vertex 0.7 1.8 4.5
    endloop
  endfacet
  facet normal 1 -0 0
    outer loop
      vertex 0.7 0.7 4.5
      vertex 0.7 1.8 2.5
      vertex 0.7 1.8 4.5
    endloop
  endfacet
  facet normal 1 0 0
    outer loop
      vertex 0.7 1.8 2.5
      vertex 0.7 0.7 4.5
      vertex 0.7 0.7 2.5
    endloop
  endfacet
  facet normal 0 -1 0
    outer loop
      vertex 0.7 1.8 2.5
      vertex 1.8 1.8 4.5
      vertex 0.7 1.8 4.5
    endloop
  endfacet
  facet normal 0 -1 -0
    outer loop
      vertex 1.8 1.8 4.5
      vertex 0.7 1.8 2.5
      vertex 1.8 1.8 2.5
    endloop
  endfacet
  facet normal 0 1 -0
    outer loop
      vertex 1.8 0.7 2.5
      vertex 0.7 0.7 4.5
      vertex 1.8 0.7 4.5
    endloop
  endfacet
  facet normal 0 1 0
    outer loop
      vertex 0.7 0.7 4.5
      vertex 1.8 0.7 2.5
      vertex 0.7 0.7 2.5
    endloop
  endfacet
  facet normal 0 0 -1
    outer loop
      vertex 100 0 2.5
      vertex 99.3 0.7 2.5
      vertex 100 2.5 2.5
    endloop
  endfacet
  facet normal 0 0 -1
    outer loop
      vertex 100 0 2.5
      vertex 98.2 0.7 2.5
      vertex 99.3 0.7 2.5
    endloop
  endfacet
  facet normal -0 0 -1
    outer loop
      vertex 98.2 0.7 2.5
      vertex 97.5 0 2.5
      vertex 98.2 1.8 2.5
    endloop
  endfacet
  facet normal 0 0 -1
    outer loop
      vertex 97.5 0 2.5
      vertex 98.2 0.7 2.5
      vertex 100 0 2.5
    endloop
  endfacet
  facet normal 0 0 -1
    outer loop
      vertex 99.3 1.8 2.5
      vertex 100 2.5 2.5
      vertex 99.3 0.7 2.5
    endloop
  endfacet
  facet normal 0 0 -1
    outer loop
      vertex 98.2 1.8 2.5
      vertex 100 2.5 2.5
      vertex 99.3 1.8 2.5
    endloop
  endfacet
  facet normal 0 0 -1
    outer loop
      vertex 98.2 1.8 2.5
      vertex 97.5 2.5 2.5
      vertex 100 2.5 2.5
    endloop
  endfacet
  facet normal 0 0 -1
    outer loop
      vertex 97.5 2.5 2.5
      vertex 98.2 1.8 2.5
      vertex 97.5 0 2.5
    endloop
  endfacet
  facet normal 1 -0 0
    outer loop
      vertex 97.5 0 2.5
      vertex 97.5 2.5 0
      vertex 97.5 2.5 2.5
    endloop
  endfacet
  facet normal 1 0 0
    outer loop
      vertex 97.5 2.5 0
      vertex 97.5 0 2.5
      vertex 97.5 0 0
    endloop
  endfacet
  facet normal -1 0 0
    outer loop
      vertex 99.3 0.7 2.5
      vertex 99.3 1.8 4.5
      vertex 99.3 1.8 2.5
    endloop
  endfacet
  facet normal -1 -0 0
    outer loop
      vertex 99.3 1.8 4.5
      vertex 99.3 0.7 2.5
      vertex 99.3 0.7 4.5
    endloop
  endfacet
  facet normal 0 0 -1
    outer loop
      vertex 98.2 0.7 4.5
      vertex 99.3 1.8 4.5
      vertex 99.3 0.7 4.5
    endloop
  endfacet
  facet normal -0 0 -1
    outer loop
      vertex 99.3 1.8 4.5
      vertex 98.2 0.7 4.5
      vertex 98.2 1.8 4.5
    endloop
  endfacet
  facet normal 1 -0 0
    outer loop
      vertex 98.2 0.7 4.5
      vertex 98.2 1.8 2.5
      vertex 98.2 1.8 4.5
    endloop
  endfacet
  facet normal 1 0 0
    outer loop
      vertex 98.2 1.8 2.5
      vertex 98.2 0.7 4.5
      vertex 98.2 0.7 2.5
    endloop
  endfacet
  facet normal 0 -1 0
    outer loop
      vertex 98.2 1.8 2.5
      vertex 99.3 1.8 4.5
      vertex 98.2 1.8 4.5
    endloop
  endfacet
  facet normal 0 -1 -0
    outer loop
      vertex 99.3 1.8 4.5
      vertex 98.2 1.8 2.5
      vertex 99.3 1.8 2.5
    endloop
  endfacet
  facet normal 0 1 -0
    outer loop
      vertex 99.3 0.7 2.5
      vertex 98.2 0.7 4.5
      vertex 99.3 0.7 4.5
    endloop
  endfacet
  facet normal 0 1 0
    outer loop
      vertex 98.2 0.7 4.5
      vertex 99.3 0.7 2.5
      vertex 98.2 0.7 2.5
    endloop
  endfacet
  facet normal -1 0 0
    outer loop
      vertex 2.5 0 77.5
      vertex 2.5 2.5 80
      vertex 2.5 2.5 77.5
    endloop
  endfacet
  facet normal -1 -0 0
    outer loop
      vertex 2.5 2.5 80
      vertex 2.5 0 77.5
      vertex 2.5 0 80
    endloop
  endfacet
  facet normal 0 0 1
    outer loop
      vertex 2.5 2.5 77.5
      vertex 1.8 1.8 77.5
      vertex 2.5 0 77.5
    endloop
  endfacet
  facet normal 0 0 1
    outer loop
      vertex 2.5 2.5 77.5
      vertex 0.7 1.8 77.5
      vertex 1.8 1.8 77.5
    endloop
  endfacet
  facet normal 0 0 1
    outer loop
      vertex 0.7 1.8 77.5
      vertex 0 2.5 77.5
      vertex 0.7 0.7 77.5
    endloop
  endfacet
  facet normal -0 0 1
    outer loop
      vertex 0 2.5 77.5
      vertex 0.7 1.8 77.5
      vertex 2.5 2.5 77.5
    endloop
  endfacet
  facet normal -0 0 1
    outer loop
      vertex 1.8 0.7 77.5
      vertex 2.5 0 77.5
      vertex 1.8 1.8 77.5
    endloop
  endfacet
  facet normal -0 0 1
    outer loop
      vertex 0.7 0.7 77.5
      vertex 2.5 0 77.5
      vertex 1.8 0.7 77.5
    endloop
  endfacet
  facet normal 0 0 1
    outer loop
      vertex 0.7 0.7 77.5
      vertex 0 0 77.5
      vertex 2.5 0 77.5
    endloop
  endfacet
  facet normal 0 0 1
    outer loop
      vertex 0 0 77.5
      vertex 0.7 0.7 77.5
      vertex 0 2.5 77.5
    endloop
  endfacet
  facet normal -1 0 0
    outer loop
      vertex 1.8 0.7 75.5
      vertex 1.8 1.8 77.5
      vertex 1.8 1.8 75.5
    endloop
  endfacet
  facet normal -1 -0 0
    outer loop
      vertex 1.8 1.8 77.5
      vertex 1.8 0.7 75.5
      vertex 1.8 0.7 77.5
    endloop
  endfacet
  facet normal -0 0 1
    outer loop
      vertex 0.7 1.8 75.5
      vertex 1.8 0.7 75.5
      vertex 1.8 1.8 75.5
    endloop
  endfacet
  facet normal 0 0 1
    outer loop
      vertex 1.8 0.7 75.5
      vertex 0.7 1.8 75.5
      vertex 0.7 0.7 75.5
    endloop
  endfacet
  facet normal 1 -0 0
    outer loop
      vertex 0.7 0.7 77.5
      vertex 0.7 1.8 75.5
      vertex 0.7 1.8 77.5
    endloop
  endfacet
  facet normal 1 0 0
    outer loop
      vertex 0.7 1.8 75.5
      vertex 0.7 0.7 77.5
      vertex 0.7 0.7 75.5
    endloop
  endfacet
  facet normal 0 -1 0
    outer loop
      vertex 0.7 1.8 75.5
      vertex 1.8 1.8 77.5
      vertex 0.7 1.8 77.5
    endloop
  endfacet
  facet normal 0 -1 -0
    outer loop
      vertex 1.8 1.8 77.5
      vertex 0.7 1.8 75.5
      vertex 1.8 1.8 75.5
    endloop
  endfacet
  facet normal 0 1 -0
    outer loop
      vertex 1.8 0.7 75.5
      vertex 0.7 0.7 77.5
      vertex 1.8 0.7 77.5
    endloop
  endfacet
  facet normal 0 1 0
    outer loop
      vertex 0.7 0.7 77.5
      vertex 1.8 0.7 75.5
      vertex 0.7 0.7 75.5
    endloop
  endfacet
  facet normal 0 0 1
    outer loop
      vertex 100 2.5 77.5
      vertex 99.3 1.8 77.5
      vertex 100 0 77.5
    endloop
  endfacet
  facet normal 0 0 1
    outer loop
      vertex 100 2.5 77.5
      vertex 98.2 1.8 77.5
      vertex 99.3 1.8 77.5
    endloop
  endfacet
  facet normal 0 0 1
    outer loop
      vertex 98.2 1.8 77.5
      vertex 97.5 2.5 77.5
      vertex 98.2 0.7 77.5
    endloop
  endfacet
  facet normal -0 0 1
    outer loop
      vertex 97.5 2.5 77.5
      vertex 98.2 1.8 77.5
      vertex 100 2.5 77.5
    endloop
  endfacet
  facet normal -0 0 1
    outer loop
      vertex 99.3 0.7 77.5
      vertex 100 0 77.5
      vertex 99.3 1.8 77.5
    endloop
  endfacet
  facet normal -0 0 1
    outer loop
      vertex 98.2 0.7 77.5
      vertex 100 0 77.5
      vertex 99.3 0.7 77.5
    endloop
  endfacet
  facet normal 0 0 1
    outer loop
      vertex 98.2 0.7 77.5
      vertex 97.5 0 77.5
      vertex 100 0 77.5
    endloop
  endfacet
  facet normal 0 0 1
    outer loop
      vertex 97.5 0 77.5
      vertex 98.2 0.7 77.5
      vertex 97.5 2.5 77.5
    endloop
  endfacet
  facet normal 1 -0 0
    outer loop
      vertex 97.5 0 80
      vertex 97.5 2.5 77.5
      vertex 97.5 2.5 80
    endloop
  endfacet
  facet normal 1 0 0
    outer loop
      vertex 97.5 2.5 77.5
      vertex 97.5 0 80
      vertex 97.5 0 77.5
    endloop
  endfacet
  facet normal -1 0 0
    outer loop
      vertex 99.3 0.7 75.5
      vertex 99.3 1.8 77.5
      vertex 99.3 1.8 75.5
    endloop
  endfacet
  facet normal -1 -0 0
    outer loop
      vertex 99.3 1.8 77.5
      vertex 99.3 0.7 75.5
      vertex 99.3 0.7 77.5
    endloop
  endfacet
  facet normal -0 0 1
    outer loop
      vertex 98.2 1.8 75.5
      vertex 99.3 0.7 75.5
      vertex 99.3 1.8 75.5
    endloop
  endfacet
  facet normal 0 0 1
    outer loop
      vertex 99.3 0.7 75.5
      vertex 98.2 1.8 75.5
      vertex 98.2 0.7 75.5
    endloop
  endfacet
  facet normal 1 -0 0
    outer loop
      vertex 98.2 0.7 77.5
      vertex 98.2 1.8 75.5
      vertex 98.2 1.8 77.5
    endloop
  endfacet
  facet normal 1 0 0
    outer loop
      vertex 98.2 1.8 75.5
      vertex 98.2 0.7 77.5
      vertex 98.2 0.7 75.5
    endloop
  endfacet
  facet normal 0 -1 0
    outer loop
      vertex 98.2 1.8 75.5
      vertex 99.3 1.8 77.5
      vertex 98.2 1.8 77.5
    endloop
  endfacet
  facet normal 0 -1 -0
    outer loop
      vertex 99.3 1.8 77.5
      vertex 98.2 1.8 75.5
      vertex 99.3 1.8 75.5
    endloop
  endfacet
  facet normal 0 1 -0
    outer loop
      vertex 99.3 0.7 75.5
      vertex 98.2 0.7 77.5
      vertex 99.3 0.7 77.5
    endloop
  endfacet
  facet normal 0 1 0
    outer loop
      vertex 98.2 0.7 77.5
      vertex 99.3 0.7 75.5
      vertex 98.2 0.7 75.5
    endloop
  endfacet
endsolid OpenSCAD_Model
